<?xml version="1.0" encoding="UTF-8" standalone="no"?>
<!-- Created with Inkscape (http://www.inkscape.org/) -->

<svg
   xmlns:ns0="http://www.iki.fi/pav/software/textext/"
   xmlns:dc="http://purl.org/dc/elements/1.1/"
   xmlns:cc="http://creativecommons.org/ns#"
   xmlns:rdf="http://www.w3.org/1999/02/22-rdf-syntax-ns#"
   xmlns:svg="http://www.w3.org/2000/svg"
   xmlns="http://www.w3.org/2000/svg"
   xmlns:xlink="http://www.w3.org/1999/xlink"
   xmlns:sodipodi="http://sodipodi.sourceforge.net/DTD/sodipodi-0.dtd"
   xmlns:inkscape="http://www.inkscape.org/namespaces/inkscape"
   width="210mm"
   height="297mm"
   id="svg3236"
   version="1.1"
   inkscape:version="0.48.3.1 r9886"
   sodipodi:docname="Nouveau document 1">
  <sodipodi:namedview
     id="base"
     pagecolor="#ffffff"
     bordercolor="#666666"
     borderopacity="1.0"
     inkscape:pageopacity="0.0"
     inkscape:pageshadow="2"
     inkscape:zoom="2.8284271"
     inkscape:cx="317.54459"
     inkscape:cy="596.09497"
     inkscape:document-units="px"
     inkscape:current-layer="layer1"
     showgrid="true"
     inkscape:window-width="1440"
     inkscape:window-height="876"
     inkscape:window-x="0"
     inkscape:window-y="24"
     inkscape:window-maximized="1">
    <inkscape:grid
       type="xygrid"
       id="grid3997" />
  </sodipodi:namedview>
  <defs
     id="defs3238" />
  <metadata
     id="metadata3241">
    <rdf:RDF>
      <cc:Work
         rdf:about="">
        <dc:format>image/svg+xml</dc:format>
        <dc:type
           rdf:resource="http://purl.org/dc/dcmitype/StillImage" />
        <dc:title></dc:title>
      </cc:Work>
    </rdf:RDF>
  </metadata>
  <g
     inkscape:label="Calque 1"
     inkscape:groupmode="layer"
     id="layer1">
    <g
       id="g14"
       transform="matrix(0.08143783,0,0,-0.08143783,183.28027,521.98553)">
      <path
         d="m 1477.81,760.129 c 0,6.871 0,9.691 19.07,9.691 l 6.56,0 0,6.25 c -7.19,-0.629 -25.63,-0.629 -33.75,-0.629 -8.13,0 -26.57,0 -33.75,0.629 l 0,-6.25 6.56,0 c 18.75,0 18.75,-2.5 18.75,-9.691 l 0,-88.438 c -25.94,6.879 -26.87,37.809 -26.87,50.629 -0.32,24.059 -9.07,27.809 -17.82,27.809 l -7.5,0 c -2.81,0 -5,0 -5,-2.188 0,-0.941 0.63,-1.871 1.88,-2.191 6.56,-0.621 11.56,-3.43 11.87,-26.871 0,-4.688 0.63,-20.309 10,-33.75 7.81,-10.938 20,-16.559 33.44,-18.438 l 0,-11.25 c 0,-6.562 0,-9.371 -18.75,-9.371 l -6.56,0 0,-6.25 c 7.18,0.621 25.31,0.621 33.75,0.621 8.12,0 26.56,0 33.75,-0.621 l 0,6.25 -6.56,0 c -19.07,0 -19.07,2.5 -19.07,9.371 l 0,11.25 c 14.38,1.879 26.57,7.809 34.38,18.129 10.31,14.059 10.62,30 10.62,38.75 0,3.121 0.31,20.93 10.94,22.18 1.25,0.32 2.5,0.629 2.5,2.191 0,2.188 -1.56,2.188 -4.69,2.188 l -7.5,0 c -7.81,0 -17.5,-1.25 -17.81,-30.309 -0.31,-21.879 -6.87,-42.82 -28.44,-48.129 l 0,88.438 z"
         style="fill:#000000;fill-opacity:1;fill-rule:nonzero;stroke:none"
         id="path16"
         inkscape:connector-curvature="0" />
      <path
         d="m 1609.02,697.121 c 0,2.188 -1.87,5.309 -5.62,5.309 -4.06,0 -7.81,-4.059 -7.81,-7.809 0,-2.191 1.56,-5.312 5.62,-5.312 3.75,0 7.81,3.75 7.81,7.812 z m -29.68,-94.062 c -2.19,-9.688 -9.69,-17.5 -17.82,-17.5 -1.87,0 -3.43,0 -5,0.621 3.44,1.879 4.69,5 4.69,7.191 0,3.438 -2.81,5 -5.62,5 -4.07,0 -7.82,-3.75 -7.82,-8.121 0,-5.32 5.32,-8.75 13.75,-8.75 8.44,0 24.69,5 29.07,21.871 l 12.5,50 c 0.31,1.559 0.62,2.809 0.62,5 0,7.5 -6.56,13.129 -14.69,13.129 -15.62,0 -24.37,-19.379 -24.37,-21.57 0,-1.559 1.87,-1.559 2.19,-1.559 1.56,0 1.87,0.309 2.81,2.5 3.44,8.129 10.62,16.559 18.75,16.559 3.44,0 4.69,-2.18 4.69,-6.871 0,-1.559 0,-3.438 -0.32,-4.059 l -13.43,-53.441 z"
         style="fill:#000000;fill-opacity:1;fill-rule:nonzero;stroke:none"
         id="path18"
         inkscape:connector-curvature="0" />
      <path
         d="m 760,1483.14 0,0 0,0 0,0 z"
         style="fill:#000000;fill-opacity:1;fill-rule:evenodd;stroke:none"
         id="path20"
         inkscape:connector-curvature="0" />
      <path
         d="m 560,1515.13 728.01,0"
         style="fill:none;stroke:#000000;stroke-width:8;stroke-linecap:butt;stroke-linejoin:miter;stroke-miterlimit:4;stroke-opacity:1;stroke-dasharray:none"
         id="path22"
         inkscape:connector-curvature="0" />
      <path
         d="m 1246.13,1534.47 52.46,-19.26 -52.46,-19.3 c 8.4,11.41 8.36,26.95 0,38.56 z"
         style="fill:#000000;fill-opacity:1;fill-rule:evenodd;stroke:none"
         id="path24"
         inkscape:connector-curvature="0" />
      <path
         d="m 560.699,715.051 728.011,0"
         style="fill:none;stroke:#000000;stroke-width:8;stroke-linecap:butt;stroke-linejoin:miter;stroke-miterlimit:4;stroke-opacity:1;stroke-dasharray:none"
         id="path26"
         inkscape:connector-curvature="0" />
      <path
         d="m 1246.84,734.391 52.46,-19.262 -52.46,-19.301 c 8.39,11.41 8.36,26.961 0,38.563 z"
         style="fill:#000000;fill-opacity:1;fill-rule:evenodd;stroke:none"
         id="path28"
         inkscape:connector-curvature="0" />
      <path
         d="m 1469.69,1566.89 c 0,6.87 0,9.69 19.06,9.69 l 6.56,0 0,6.25 c -7.19,-0.63 -25.62,-0.63 -33.75,-0.63 -8.12,0 -26.56,0 -33.75,0.63 l 0,-6.25 6.57,0 c 18.74,0 18.74,-2.5 18.74,-9.69 l 0,-88.44 c -25.93,6.88 -26.87,37.81 -26.87,50.63 -0.31,24.06 -9.06,27.81 -17.81,27.81 l -7.5,0 c -2.82,0 -5,0 -5,-2.19 0,-0.94 0.62,-1.87 1.87,-2.19 6.57,-0.62 11.57,-3.43 11.88,-26.87 0,-4.69 0.62,-20.31 10,-33.75 7.81,-10.94 20,-16.56 33.43,-18.44 l 0,-11.25 c 0,-6.56 0,-9.37 -18.74,-9.37 l -6.57,0 0,-6.25 c 7.19,0.62 25.31,0.62 33.75,0.62 8.13,0 26.56,0 33.75,-0.62 l 0,6.25 -6.56,0 c -19.06,0 -19.06,2.5 -19.06,9.37 l 0,11.25 c 14.37,1.88 26.56,7.81 34.37,18.13 10.32,14.06 10.63,30 10.63,38.75 0,3.12 0.31,20.93 10.93,22.18 1.26,0.32 2.5,0.63 2.5,2.19 0,2.19 -1.56,2.19 -4.68,2.19 l -7.5,0 c -7.82,0 -17.5,-1.25 -17.82,-30.31 -0.31,-21.88 -6.87,-42.82 -28.43,-48.13 l 0,88.44 z"
         style="fill:#000000;fill-opacity:1;fill-rule:nonzero;stroke:none"
         id="path30"
         inkscape:connector-curvature="0" />
      <path
         d="m 1585,1503.88 c 0,2.19 -1.88,5.31 -5.62,5.31 -3.76,0 -7.82,-3.75 -7.82,-7.81 0,-2.19 1.56,-5.31 5.63,-5.31 3.75,0 7.81,4.06 7.81,7.81 z m -28.44,-70.94 c -0.62,-1.87 -1.25,-3.44 -1.25,-5.94 0,-6.56 5.31,-11.56 13.13,-11.56 13.75,0 20,19.06 20,21.25 0,1.88 -1.88,1.88 -2.19,1.88 -1.87,0 -2.19,-0.94 -2.81,-2.5 -3.13,-11.25 -9.06,-16.88 -14.69,-16.88 -2.81,0 -3.44,1.88 -3.44,5 0,3.13 0.94,5.63 2.19,8.75 1.56,3.75 3.12,7.5 4.38,11.25 1.24,3.44 6.56,15.94 6.87,17.81 0.63,1.25 0.94,2.82 0.94,4.38 0,6.56 -5.63,11.87 -13.13,11.87 -14.06,0 -20.31,-19.06 -20.31,-21.56 0,-1.56 1.87,-1.56 2.5,-1.56 1.87,0 1.87,0.62 2.5,2.19 3.44,11.87 9.69,16.87 14.69,16.87 2.18,0 3.44,-0.94 3.44,-4.69 0,-3.43 -0.63,-5.31 -4.07,-14.06 l -8.75,-22.5 z"
         style="fill:#000000;fill-opacity:1;fill-rule:nonzero;stroke:none"
         id="path32"
         inkscape:connector-curvature="0" />
      <path
         d="m 3152.34,1687.08 0,0 0,0 0,0 z"
         style="fill:#000000;fill-opacity:1;fill-rule:evenodd;stroke:none"
         id="path34"
         inkscape:connector-curvature="0" />
      <path
         d="m 1672.34,1511.07 728.01,0"
         style="fill:none;stroke:#000000;stroke-width:8;stroke-linecap:butt;stroke-linejoin:miter;stroke-miterlimit:4;stroke-opacity:1;stroke-dasharray:none"
         id="path36"
         inkscape:connector-curvature="0" />
      <path
         d="m 2358.52,1530.44 52.42,-19.29 -52.42,-19.26 c 8.36,11.36 8.32,26.95 0,38.55 z"
         style="fill:#000000;fill-opacity:1;fill-rule:evenodd;stroke:none"
         id="path38"
         inkscape:connector-curvature="0" />
      <path
         d="m 1673.05,710.992 728,0"
         style="fill:none;stroke:#000000;stroke-width:8;stroke-linecap:butt;stroke-linejoin:miter;stroke-miterlimit:4;stroke-opacity:1;stroke-dasharray:none"
         id="path40"
         inkscape:connector-curvature="0" />
      <path
         d="m 2359.22,730.359 52.42,-19.289 -52.42,-19.261 c 8.36,11.371 8.32,26.953 0,38.55 z"
         style="fill:#000000;fill-opacity:1;fill-rule:evenodd;stroke:none"
         id="path42"
         inkscape:connector-curvature="0" />
      <g
         id="g44"
         transform="scale(1.09434,-0.90566)">
        <path
           d="m 1542.49,-1670.76 c 0,118.31 -79.39,214.23 -177.3,214.23 -97.87,0 -177.26,-95.92 -177.26,-214.23 0,-118.27 79.39,-214.19 177.26,-214.19 97.91,0 177.3,95.92 177.3,214.19 z"
           style="fill:none;stroke:#000000;stroke-width:8.03584003;stroke-linecap:butt;stroke-linejoin:miter;stroke-miterlimit:4;stroke-opacity:1;stroke-dasharray:none"
           id="path46"
           inkscape:connector-curvature="0" />
      </g>
      <g
         id="g48"
         transform="scale(1.09434,-0.90566)">
        <path
           d="m 1535.17,-782.975 c 0,115.847 -77.74,209.787 -173.62,209.787 -95.88,0 -173.62,-93.94 -173.62,-209.787 0,-115.899 77.74,-209.8 173.62,-209.8 95.88,0 173.62,93.901 173.62,209.8 z"
           style="fill:none;stroke:#000000;stroke-width:8.03584003;stroke-linecap:butt;stroke-linejoin:miter;stroke-miterlimit:4;stroke-opacity:1;stroke-dasharray:none"
           id="path50"
           inkscape:connector-curvature="0" />
      </g>
      <path
         d="m 1336.02,823.141 c -77.7,76.211 -122.19,185.149 -120,293.979 2.07,104.41 46.91,207.38 121.99,280"
         style="fill:none;stroke:#000000;stroke-width:8;stroke-linecap:butt;stroke-linejoin:miter;stroke-miterlimit:4;stroke-opacity:1;stroke-dasharray:none"
         id="path52"
         inkscape:connector-curvature="0" />
      <path
         d="m 1294.45,1381.93 51.1,22.61 -24.26,-50.31 c -1.91,13.99 -12.77,25.16 -26.84,27.7 z"
         style="fill:#000000;fill-opacity:1;fill-rule:evenodd;stroke:none"
         id="path54"
         inkscape:connector-curvature="0" />
      <path
         d="m 1654.73,1387.71 c 77.69,-76.21 122.18,-185.16 120,-293.99 -2.07,-104.408 -46.92,-207.376 -122,-279.997"
         style="fill:none;stroke:#000000;stroke-width:8;stroke-linecap:butt;stroke-linejoin:miter;stroke-miterlimit:4;stroke-opacity:1;stroke-dasharray:none"
         id="path56"
         inkscape:connector-curvature="0" />
      <path
         d="m 1696.29,828.922 -51.09,-22.621 24.25,50.308 c 1.92,-13.98 12.78,-25.148 26.84,-27.687 z"
         style="fill:#000000;fill-opacity:1;fill-rule:evenodd;stroke:none"
         id="path58"
         inkscape:connector-curvature="0" />
      <path
         d="m 1336.64,1632.82 c -77.69,76.21 -122.19,185.2 -120,293.99 2.07,104.45 46.91,207.38 121.99,280"
         style="fill:none;stroke:#000000;stroke-width:8;stroke-linecap:butt;stroke-linejoin:miter;stroke-miterlimit:4;stroke-opacity:1;stroke-dasharray:none"
         id="path92"
         inkscape:connector-curvature="0" />
      <path
         d="m 1295.08,2191.65 51.09,22.58 -24.26,-50.31 c -1.91,14.02 -12.77,25.16 -26.83,27.73 z"
         style="fill:#000000;fill-opacity:1;fill-rule:evenodd;stroke:none"
         id="path94"
         inkscape:connector-curvature="0" />
      <path
         d="m 1655.39,2197.43 c 77.66,-76.25 122.15,-185.19 120,-294.02 -2.11,-104.41 -46.95,-207.34 -122.03,-280"
         style="fill:none;stroke:#000000;stroke-width:8;stroke-linecap:butt;stroke-linejoin:miter;stroke-miterlimit:4;stroke-opacity:1;stroke-dasharray:none"
         id="path96"
         inkscape:connector-curvature="0" />
      <path
         d="m 1696.91,1638.61 -51.09,-22.62 24.26,50.35 c 1.91,-14.02 12.77,-25.19 26.83,-27.73 z"
         style="fill:#000000;fill-opacity:1;fill-rule:evenodd;stroke:none"
         id="path98"
         inkscape:connector-curvature="0" />
      <path
         d="m 1328.63,16.8125 c -77.69,76.25 -122.18,185.1915 -120,294.0195 2.07,104.41 46.92,207.34 121.99,280"
         style="fill:none;stroke:#000000;stroke-width:8;stroke-linecap:butt;stroke-linejoin:miter;stroke-miterlimit:4;stroke-opacity:1;stroke-dasharray:none"
         id="path100"
         inkscape:connector-curvature="0" />
      <path
         d="m 1287.07,575.641 51.13,22.609 -24.29,-50.352 c -1.88,14.032 -12.78,25.204 -26.84,27.743 z"
         style="fill:#000000;fill-opacity:1;fill-rule:evenodd;stroke:none"
         id="path102"
         inkscape:connector-curvature="0" />
      <path
         d="m 1647.38,581.422 c 77.7,-76.211 122.15,-185.199 120,-293.988 C 1765.27,182.98 1720.43,80.0508 1645.39,7.43359"
         style="fill:none;stroke:#000000;stroke-width:8;stroke-linecap:butt;stroke-linejoin:miter;stroke-miterlimit:4;stroke-opacity:1;stroke-dasharray:none"
         id="path104"
         inkscape:connector-curvature="0" />
      <path
         d="m 1688.91,22.5898 -51.1,-22.5780812 24.3,50.3163812 c 1.87,-14.0273 12.73,-25.1562 26.8,-27.7383 z"
         style="fill:#000000;fill-opacity:1;fill-rule:evenodd;stroke:none"
         id="path106"
         inkscape:connector-curvature="0" />
      <path
         d="m 368.012,627.121 280,0 0,1056.02 -280,0 0,-1056.02 z"
         style="fill:none;stroke:#000000;stroke-width:8;stroke-linecap:butt;stroke-linejoin:miter;stroke-miterlimit:4;stroke-opacity:1;stroke-dasharray:32, 8;stroke-dashoffset:0"
         id="path108"
         inkscape:connector-curvature="0" />
      <path
         d="m 2356.02,619.113 280,0 0,1056.02 -280,0 0,-1056.02 z"
         style="fill:none;stroke:#000000;stroke-width:8;stroke-linecap:butt;stroke-linejoin:miter;stroke-miterlimit:4;stroke-opacity:1;stroke-dasharray:32, 8;stroke-dashoffset:0"
         id="path110"
         inkscape:connector-curvature="0" />
      <path
         d="m 960,983.141 1056.02,0 0,280 -1056.02,0 0,-280 z"
         style="fill:none;stroke:#000000;stroke-width:8;stroke-linecap:butt;stroke-linejoin:miter;stroke-miterlimit:4;stroke-opacity:1;stroke-dasharray:32, 8;stroke-dashoffset:0"
         id="path112"
         inkscape:connector-curvature="0" />
      <g
         id="g3047"
         ns0:preamble=""
         ns0:text="$\\sigma_{i,j}$">
        <defs
           id="defs3049">
          <g
             id="g3051">
            <symbol
               style="overflow:visible"
               id="textext-d9a43499-0"
               overflow="visible">
              <path
                 inkscape:connector-curvature="0"
                 id="path3054"
                 d=""
                 style="stroke:none" />
            </symbol>
            <symbol
               style="overflow:visible"
               id="textext-d9a43499-1"
               overflow="visible">
              <path
                 inkscape:connector-curvature="0"
                 id="path3057"
                 d="m 5.15625,-3.71875 c 0.140625,0 0.5,0 0.5,-0.34375 0,-0.234375 -0.21875,-0.234375 -0.390625,-0.234375 l -2.28125,0 c -1.5,0 -2.609375,1.640625 -2.609375,2.828125 0,0.875 0.59375,1.578125 1.5,1.578125 1.171875,0 2.5,-1.203125 2.5,-2.734375 0,-0.171875 0,-0.65625 -0.3125,-1.09375 l 1.09375,0 z M 1.890625,-0.109375 C 1.390625,-0.109375 1,-0.46875 1,-1.1875 c 0,-0.296875 0.109375,-1.109375 0.46875,-1.703125 0.421875,-0.6875 1.015625,-0.828125 1.359375,-0.828125 0.828125,0 0.90625,0.65625 0.90625,0.96875 0,0.46875 -0.203125,1.28125 -0.53125,1.796875 -0.390625,0.578125 -0.9375,0.84375 -1.3125,0.84375 z m 0,0"
                 style="stroke:none" />
            </symbol>
            <symbol
               style="overflow:visible"
               id="textext-d9a43499-2"
               overflow="visible">
              <path
                 inkscape:connector-curvature="0"
                 id="path3060"
                 d=""
                 style="stroke:none" />
            </symbol>
            <symbol
               style="overflow:visible"
               id="textext-d9a43499-3"
               overflow="visible">
              <path
                 inkscape:connector-curvature="0"
                 id="path3063"
                 d="m 2.265625,-4.359375 c 0,-0.109375 -0.09375,-0.265625 -0.28125,-0.265625 -0.1875,0 -0.390625,0.1875 -0.390625,0.390625 0,0.109375 0.078125,0.265625 0.28125,0.265625 0.1875,0 0.390625,-0.203125 0.390625,-0.390625 z M 0.84375,-0.8125 c -0.03125,0.09375 -0.0625,0.171875 -0.0625,0.296875 0,0.328125 0.265625,0.578125 0.65625,0.578125 0.6875,0 1,-0.953125 1,-1.0625 0,-0.09375 -0.09375,-0.09375 -0.109375,-0.09375 -0.09375,0 -0.109375,0.046875 -0.140625,0.125 -0.15625,0.5625 -0.453125,0.84375 -0.734375,0.84375 -0.140625,0 -0.171875,-0.09375 -0.171875,-0.25 0,-0.15625 0.046875,-0.28125 0.109375,-0.4375 C 1.46875,-1 1.546875,-1.1875 1.609375,-1.375 1.671875,-1.546875 1.9375,-2.171875 1.953125,-2.265625 1.984375,-2.328125 2,-2.40625 2,-2.484375 2,-2.8125 1.71875,-3.078125 1.34375,-3.078125 0.640625,-3.078125 0.328125,-2.125 0.328125,-2 c 0,0.078125 0.09375,0.078125 0.125,0.078125 0.09375,0 0.09375,-0.03125 0.125,-0.109375 C 0.75,-2.625 1.0625,-2.875 1.3125,-2.875 c 0.109375,0 0.171875,0.046875 0.171875,0.234375 0,0.171875 -0.03125,0.265625 -0.203125,0.703125 l -0.4375,1.125 z m 0,0"
                 style="stroke:none" />
            </symbol>
            <symbol
               style="overflow:visible"
               id="textext-d9a43499-4"
               overflow="visible">
              <path
                 inkscape:connector-curvature="0"
                 id="path3066"
                 d="m 1.46875,-0.109375 c 0,0.375 -0.0625,0.828125 -0.546875,1.265625 C 0.90625,1.1875 0.875,1.21875 0.875,1.25 c 0,0.046875 0.0625,0.09375 0.09375,0.09375 0.109375,0 0.703125,-0.5625 0.703125,-1.390625 0,-0.421875 -0.171875,-0.75 -0.5,-0.75 -0.21875,0 -0.390625,0.171875 -0.390625,0.390625 C 0.78125,-0.1875 0.9375,0 1.1875,0 1.359375,0 1.46875,-0.109375 1.46875,-0.109375 z m 0,0"
                 style="stroke:none" />
            </symbol>
            <symbol
               style="overflow:visible"
               id="textext-d9a43499-5"
               overflow="visible">
              <path
                 inkscape:connector-curvature="0"
                 id="path3069"
                 d="M 3.0625,-4.359375 C 3.0625,-4.46875 2.96875,-4.625 2.78125,-4.625 c -0.203125,0 -0.390625,0.203125 -0.390625,0.390625 0,0.109375 0.078125,0.265625 0.28125,0.265625 0.1875,0 0.390625,-0.1875 0.390625,-0.390625 z M 1.578125,0.34375 C 1.46875,0.828125 1.09375,1.21875 0.6875,1.21875 c -0.09375,0 -0.171875,0 -0.25,-0.03125 0.171875,-0.09375 0.234375,-0.25 0.234375,-0.359375 0,-0.171875 -0.140625,-0.25 -0.28125,-0.25 C 0.1875,0.578125 0,0.765625 0,0.984375 c 0,0.265625 0.265625,0.4375 0.6875,0.4375 0.421875,0 1.234375,-0.25 1.453125,-1.09375 l 0.625,-2.5 c 0.015625,-0.078125 0.03125,-0.140625 0.03125,-0.25 0,-0.375 -0.328125,-0.65625 -0.734375,-0.65625 -0.78125,0 -1.21875,0.96875 -1.21875,1.078125 0,0.078125 0.09375,0.078125 0.109375,0.078125 0.078125,0 0.09375,-0.015625 0.140625,-0.125 C 1.265625,-2.453125 1.625,-2.875 2.03125,-2.875 c 0.171875,0 0.234375,0.109375 0.234375,0.34375 0,0.078125 0,0.171875 -0.015625,0.203125 L 1.578125,0.34375 z m 0,0"
                 style="stroke:none" />
            </symbol>
          </g>
        </defs>
        <g
           id="textext-d9a43499-6">
          <g
             id="g3072"
             style="fill:#000000;fill-opacity:1">
            <use
               height="1052.3622"
               width="744.09448"
               id="use3074"
               y="134.765"
               x="223.43201"
               xlink:href="#textext-d9a43499-1" />
          </g>
          <g
             id="g3076"
             style="fill:#000000;fill-opacity:1">
            <use
               height="1052.3622"
               width="744.09448"
               id="use3078"
               y="136.259"
               x="229.125"
               xlink:href="#textext-d9a43499-3" />
            <use
               height="1052.3622"
               width="744.09448"
               id="use3080"
               y="136.259"
               x="231.94382"
               xlink:href="#textext-d9a43499-4" />
            <use
               height="1052.3622"
               width="744.09448"
               id="use3082"
               y="136.259"
               x="234.31001"
               xlink:href="#textext-d9a43499-5" />
          </g>
        </g>
      </g>
    </g>
    <g
       id="g4013"
       transform="matrix(1.25,0,0,1.25,43.235036,246.71114)"
       ns0:preamble=""
       ns0:text="\\small\nexchanges">
      <defs
         id="defs4015">
        <g
           id="g4017">
          <symbol
             id="textext-554d0583-0"
             overflow="visible"
             style="overflow:visible">
            <path
               inkscape:connector-curvature="0"
               id="path4020"
               d=""
               style="stroke:none" />
          </symbol>
          <symbol
             id="textext-554d0583-1"
             overflow="visible"
             style="overflow:visible">
            <path
               inkscape:connector-curvature="0"
               id="path4023"
               d="m 3.59375,-2.046875 c 0.1875,0 0.234375,0 0.234375,-0.203125 0,-0.921875 -0.5,-1.765625 -1.65625,-1.765625 -1.0625,0 -1.90625,0.9375 -1.90625,2.046875 0,1.171875 0.9375,2.0625 2.03125,2.0625 1.09375,0 1.53125,-0.953125 1.53125,-1.15625 0,-0.0625 -0.046875,-0.125 -0.125,-0.125 -0.09375,0 -0.109375,0.0625 -0.125,0.109375 -0.296875,0.90625 -1.109375,0.921875 -1.234375,0.921875 -0.4375,0 -0.796875,-0.234375 -1,-0.546875 -0.296875,-0.4375 -0.3125,-0.96875 -0.3125,-1.34375 l 2.5625,0 z m -2.546875,-0.21875 c 0.078125,-1.390625 0.875,-1.53125 1.125,-1.53125 0.5,0 1.03125,0.375 1.046875,1.53125 l -2.171875,0 z m 0,0"
               style="stroke:none" />
          </symbol>
          <symbol
             id="textext-554d0583-2"
             overflow="visible"
             style="overflow:visible">
            <path
               inkscape:connector-curvature="0"
               id="path4026"
               d="m 2.734375,-2.015625 c -0.0625,-0.078125 -0.0625,-0.09375 -0.0625,-0.09375 0,-0.03125 0.703125,-0.875 0.765625,-0.953125 0.28125,-0.296875 0.59375,-0.515625 1.140625,-0.53125 l 0,-0.265625 c -0.265625,0.015625 -0.5,0.015625 -0.765625,0.015625 -0.34375,0 -0.5,0 -0.859375,-0.015625 l 0,0.265625 c 0.125,0.03125 0.25,0.09375 0.25,0.28125 0,0.140625 -0.078125,0.234375 -0.125,0.296875 L 2.5,-2.3125 1.796875,-3.203125 c -0.0625,-0.078125 -0.078125,-0.09375 -0.078125,-0.15625 0,-0.109375 0.109375,-0.21875 0.3125,-0.234375 l 0,-0.265625 C 1.6875,-3.84375 1.453125,-3.84375 1.046875,-3.84375 c -0.015625,0 -0.53125,0 -0.875,-0.015625 l 0,0.265625 c 0.625,0 0.640625,0.03125 1.046875,0.546875 l 0.921875,1.15625 C 1.953125,-1.65625 1.46875,-1.0625 1.28125,-0.828125 0.828125,-0.296875 0.3125,-0.28125 0.125,-0.28125 L 0.125,0 c 0.265625,-0.03125 0.5,-0.03125 0.765625,-0.03125 0.28125,0 0.578125,0.015625 0.859375,0.03125 l 0,-0.28125 C 1.53125,-0.3125 1.5,-0.453125 1.5,-0.546875 c 0,-0.03125 0,-0.15625 0.125,-0.3125 0.21875,-0.28125 0.453125,-0.546875 0.6875,-0.8125 l 0.703125,0.90625 C 3.1875,-0.578125 3.1875,-0.5625 3.1875,-0.5 c 0,0.09375 -0.09375,0.21875 -0.3125,0.21875 L 2.875,0 c 0.375,-0.015625 0.59375,-0.03125 0.984375,-0.03125 0.015625,0 0.53125,0 0.875,0.03125 l 0,-0.28125 c -0.359375,0 -0.625,0 -0.828125,-0.25 L 2.734375,-2.015625 z m 0,0"
               style="stroke:none" />
          </symbol>
          <symbol
             id="textext-554d0583-3"
             overflow="visible"
             style="overflow:visible">
            <path
               inkscape:connector-curvature="0"
               id="path4029"
               d="m 3.265625,-3.53125 c -0.1875,0.046875 -0.375,0.171875 -0.375,0.421875 0,0.234375 0.1875,0.421875 0.421875,0.421875 0.234375,0 0.421875,-0.15625 0.421875,-0.4375 0,-0.546875 -0.625,-0.890625 -1.421875,-0.890625 -1.140625,0 -2,0.953125 -2,2.078125 0,1.15625 0.921875,2.03125 1.984375,2.03125 1.25,0 1.53125,-1.078125 1.53125,-1.15625 0,-0.109375 -0.09375,-0.109375 -0.125,-0.109375 -0.09375,0 -0.09375,0.015625 -0.15625,0.171875 -0.203125,0.609375 -0.703125,0.84375 -1.15625,0.84375 -0.578125,0 -1.3125,-0.46875 -1.3125,-1.796875 0,-1.390625 0.71875,-1.8125 1.25,-1.8125 0.125,0 0.609375,0.015625 0.9375,0.234375 z m 0,0"
               style="stroke:none" />
          </symbol>
          <symbol
             id="textext-554d0583-4"
             overflow="visible"
             style="overflow:visible">
            <path
               inkscape:connector-curvature="0"
               id="path4032"
               d="M 1.640625,-6.21875 0.3125,-6.125 l 0,0.28125 c 0.609375,0 0.6875,0.0625 0.6875,0.5 l 0,4.65625 c 0,0.40625 -0.09375,0.40625 -0.6875,0.40625 L 0.3125,0 c 0.421875,-0.015625 0.59375,-0.03125 1.03125,-0.03125 0.421875,0 0.546875,0.015625 1.015625,0.03125 l 0,-0.28125 c -0.59375,0 -0.6875,0 -0.6875,-0.40625 l 0,-1.640625 c 0,-0.953125 0.671875,-1.40625 1.234375,-1.40625 0.53125,0 0.640625,0.4375 0.640625,0.96875 l 0,2.078125 c 0,0.40625 -0.09375,0.40625 -0.6875,0.40625 l 0,0.28125 C 3.28125,-0.015625 3.453125,-0.03125 3.890625,-0.03125 4.3125,-0.03125 4.4375,-0.015625 4.90625,0 l 0,-0.28125 c -0.453125,0 -0.6875,0 -0.6875,-0.28125 l 0,-1.71875 c 0,-0.734375 0,-1 -0.25,-1.3125 -0.203125,-0.25 -0.546875,-0.375 -1,-0.375 -0.59375,0 -1.046875,0.3125 -1.3125,0.828125 l -0.015625,0 0,-3.078125 z m 0,0"
               style="stroke:none" />
          </symbol>
          <symbol
             id="textext-554d0583-5"
             overflow="visible"
             style="overflow:visible">
            <path
               inkscape:connector-curvature="0"
               id="path4035"
               d="m 3.0625,-0.640625 c 0.046875,0.375 0.3125,0.6875 0.703125,0.6875 0.21875,0 0.78125,-0.125 0.78125,-0.84375 l 0,-0.5 -0.25,0 0,0.484375 c 0,0.109375 0,0.546875 -0.328125,0.546875 -0.3125,0 -0.3125,-0.421875 -0.3125,-0.5625 l 0,-1.578125 c 0,-0.515625 0,-0.8125 -0.40625,-1.1875 -0.328125,-0.296875 -0.765625,-0.421875 -1.21875,-0.421875 -0.75,0 -1.375,0.375 -1.375,0.953125 0,0.265625 0.1875,0.421875 0.421875,0.421875 0.234375,0 0.40625,-0.171875 0.40625,-0.40625 0,-0.390625 -0.390625,-0.4375 -0.40625,-0.4375 0.25,-0.234375 0.6875,-0.3125 0.9375,-0.3125 0.453125,0 0.96875,0.34375 0.96875,1.140625 l 0,0.28125 c -0.484375,0.03125 -1.15625,0.0625 -1.75,0.359375 -0.65625,0.3125 -0.84375,0.78125 -0.84375,1.140625 0,0.734375 0.859375,0.96875 1.46875,0.96875 0.734375,0 1.078125,-0.484375 1.203125,-0.734375 z m -0.078125,-0.625 c 0,0.875 -0.671875,1.140625 -1.0625,1.140625 -0.421875,0 -0.8125,-0.3125 -0.8125,-0.75 0,-0.59375 0.5,-1.21875 1.875,-1.28125 l 0,0.890625 z m 0,0"
               style="stroke:none" />
          </symbol>
          <symbol
             id="textext-554d0583-6"
             overflow="visible"
             style="overflow:visible">
            <path
               inkscape:connector-curvature="0"
               id="path4038"
               d="m 1.671875,-2.328125 c 0,-0.953125 0.671875,-1.40625 1.234375,-1.40625 0.53125,0 0.640625,0.4375 0.640625,0.96875 l 0,2.078125 c 0,0.40625 -0.09375,0.40625 -0.6875,0.40625 l 0,0.28125 C 3.28125,-0.015625 3.453125,-0.03125 3.890625,-0.03125 4.3125,-0.03125 4.4375,-0.015625 4.90625,0 l 0,-0.28125 c -0.453125,0 -0.6875,0 -0.6875,-0.28125 l 0,-1.71875 c 0,-0.734375 0,-1 -0.25,-1.3125 -0.203125,-0.25 -0.546875,-0.375 -1,-0.375 -0.828125,0 -1.21875,0.625 -1.34375,0.875 l -0.015625,0 0,-0.875 -1.296875,0.109375 0,0.265625 C 0.921875,-3.59375 1,-3.53125 1,-3.078125 L 1,-0.6875 c 0,0.40625 -0.09375,0.40625 -0.6875,0.40625 L 0.3125,0 c 0.421875,-0.015625 0.59375,-0.03125 1.03125,-0.03125 0.421875,0 0.546875,0.015625 1.015625,0.03125 l 0,-0.28125 c -0.59375,0 -0.6875,0 -0.6875,-0.40625 l 0,-1.640625 z m 0,0"
               style="stroke:none" />
          </symbol>
          <symbol
             id="textext-554d0583-7"
             overflow="visible"
             style="overflow:visible">
            <path
               inkscape:connector-curvature="0"
               id="path4041"
               d="m 1.125,-1.609375 c 0.21875,0.140625 0.5,0.28125 0.90625,0.28125 0.859375,0 1.5,-0.609375 1.5,-1.3125 0,-0.4375 -0.25,-0.75 -0.359375,-0.875 C 3.53125,-3.84375 3.953125,-3.84375 4.046875,-3.84375 4.015625,-3.8125 3.9375,-3.765625 3.9375,-3.609375 3.9375,-3.5 4,-3.34375 4.203125,-3.34375 c 0.125,0 0.265625,-0.078125 0.265625,-0.265625 0,-0.171875 -0.125,-0.453125 -0.484375,-0.453125 -0.25,0 -0.65625,0.09375 -0.96875,0.421875 -0.25,-0.203125 -0.59375,-0.328125 -0.96875,-0.328125 -0.859375,0 -1.5,0.609375 -1.5,1.328125 0,0.453125 0.265625,0.78125 0.40625,0.90625 -0.015625,0.015625 -0.265625,0.328125 -0.265625,0.75 0,0.296875 0.140625,0.625 0.390625,0.78125 -0.453125,0.15625 -0.8125,0.484375 -0.8125,0.90625 0,0.640625 0.875,1.140625 2.03125,1.140625 1.109375,0 2.046875,-0.46875 2.046875,-1.15625 0,-0.375 -0.171875,-0.765625 -0.5,-0.984375 -0.5,-0.3125 -1.03125,-0.3125 -1.875,-0.3125 -0.1875,0 -0.46875,0 -0.546875,-0.015625 C 1.171875,-0.6875 1,-0.921875 1,-1.203125 c 0,-0.15625 0.046875,-0.28125 0.125,-0.40625 z M 2.03125,-1.5625 c -0.796875,0 -0.796875,-0.890625 -0.796875,-1.078125 0,-0.25 0.015625,-0.546875 0.171875,-0.765625 0.140625,-0.1875 0.375,-0.3125 0.625,-0.3125 0.8125,0 0.8125,0.859375 0.8125,1.078125 0,0.203125 0,1.078125 -0.8125,1.078125 z m 0.421875,1.515625 c 0.28125,0 1.390625,0.015625 1.390625,0.734375 0,0.515625 -0.703125,0.921875 -1.53125,0.921875 -0.890625,0 -1.546875,-0.421875 -1.546875,-0.921875 0,-0.140625 0.09375,-0.734375 0.859375,-0.734375 l 0.828125,0 z m 0,0"
               style="stroke:none" />
          </symbol>
          <symbol
             id="textext-554d0583-8"
             overflow="visible"
             style="overflow:visible">
            <path
               inkscape:connector-curvature="0"
               id="path4044"
               d="m 3.078125,-3.78125 c 0,-0.15625 0,-0.234375 -0.09375,-0.234375 -0.046875,0 -0.0625,0 -0.1875,0.109375 -0.015625,0.015625 -0.09375,0.09375 -0.15625,0.140625 -0.265625,-0.203125 -0.546875,-0.25 -0.859375,-0.25 -1.1875,0 -1.46875,0.65625 -1.46875,1.109375 0,0.28125 0.125,0.515625 0.328125,0.71875 0.296875,0.28125 0.640625,0.34375 1.09375,0.421875 0.46875,0.09375 0.609375,0.109375 0.8125,0.265625 0.09375,0.078125 0.3125,0.25 0.3125,0.578125 0,0.796875 -0.90625,0.796875 -1.03125,0.796875 -0.90625,0 -1.140625,-0.765625 -1.25,-1.25 C 0.546875,-1.46875 0.53125,-1.515625 0.4375,-1.515625 c -0.125,0 -0.125,0.078125 -0.125,0.234375 l 0,1.140625 c 0,0.15625 0,0.234375 0.09375,0.234375 0.0625,0 0.0625,0 0.234375,-0.171875 0.03125,-0.0625 0.125,-0.171875 0.171875,-0.21875 0.375,0.375 0.796875,0.390625 1.015625,0.390625 C 2.9375,0.09375 3.3125,-0.546875 3.3125,-1.140625 3.3125,-1.546875 3.140625,-1.796875 2.9375,-2 2.640625,-2.296875 2.3125,-2.359375 1.65625,-2.484375 1.421875,-2.53125 0.765625,-2.640625 0.765625,-3.15625 c 0,-0.28125 0.203125,-0.671875 1.015625,-0.671875 0.96875,0 1.03125,0.75 1.046875,0.96875 0.015625,0.109375 0.015625,0.171875 0.125,0.171875 0.125,0 0.125,-0.0625 0.125,-0.234375 l 0,-0.859375 z m 0,0"
               style="stroke:none" />
          </symbol>
        </g>
      </defs>
      <g
         id="textext-554d0583-9">
        <g
           id="g4047"
           style="fill:#000000;fill-opacity:1">
          <use
             id="use4049"
             y="134.765"
             x="223.43201"
             xlink:href="#textext-554d0583-1"
             width="765"
             height="990" />
          <use
             id="use4051"
             y="134.765"
             x="227.53143"
             xlink:href="#textext-554d0583-2"
             width="765"
             height="990" />
          <use
             id="use4053"
             y="134.765"
             x="232.39481"
             xlink:href="#textext-554d0583-3"
             width="765"
             height="990" />
        </g>
        <g
           id="g4055"
           style="fill:#000000;fill-opacity:1">
          <use
             id="use4057"
             y="134.765"
             x="236.23064"
             xlink:href="#textext-554d0583-4"
             width="765"
             height="990" />
          <use
             id="use4059"
             y="134.765"
             x="241.35045"
             xlink:href="#textext-554d0583-5"
             width="765"
             height="990" />
          <use
             id="use4061"
             y="134.765"
             x="245.95828"
             xlink:href="#textext-554d0583-6"
             width="765"
             height="990" />
          <use
             id="use4063"
             y="134.765"
             x="251.07809"
             xlink:href="#textext-554d0583-7"
             width="765"
             height="990" />
          <use
             id="use4065"
             y="134.765"
             x="255.68593"
             xlink:href="#textext-554d0583-1"
             width="765"
             height="990" />
          <use
             id="use4067"
             y="134.765"
             x="259.78537"
             xlink:href="#textext-554d0583-8"
             width="765"
             height="990" />
        </g>
      </g>
    </g>
    <g
       ns0:text="\\small\nsupplies"
       ns0:preamble=""
       transform="matrix(1.25,0,0,1.25,-67.593084,316.96505)"
       id="g4576">
      <defs
         id="defs4578">
        <g
           id="g4580">
          <symbol
             style="overflow:visible"
             overflow="visible"
             id="textext-524dc7ed-0">
            <path
               inkscape:connector-curvature="0"
               style="stroke:none"
               d=""
               id="path4583" />
          </symbol>
          <symbol
             style="overflow:visible"
             overflow="visible"
             id="textext-524dc7ed-1">
            <path
               inkscape:connector-curvature="0"
               style="stroke:none"
               d="m 3.078125,-3.78125 c 0,-0.15625 0,-0.234375 -0.09375,-0.234375 -0.046875,0 -0.0625,0 -0.1875,0.109375 -0.015625,0.015625 -0.09375,0.09375 -0.15625,0.140625 -0.265625,-0.203125 -0.546875,-0.25 -0.859375,-0.25 -1.1875,0 -1.46875,0.65625 -1.46875,1.109375 0,0.28125 0.125,0.515625 0.328125,0.71875 0.296875,0.28125 0.640625,0.34375 1.09375,0.421875 0.46875,0.09375 0.609375,0.109375 0.8125,0.265625 0.09375,0.078125 0.3125,0.25 0.3125,0.578125 0,0.796875 -0.90625,0.796875 -1.03125,0.796875 -0.90625,0 -1.140625,-0.765625 -1.25,-1.25 C 0.546875,-1.46875 0.53125,-1.515625 0.4375,-1.515625 c -0.125,0 -0.125,0.078125 -0.125,0.234375 l 0,1.140625 c 0,0.15625 0,0.234375 0.09375,0.234375 0.0625,0 0.0625,0 0.234375,-0.171875 0.03125,-0.0625 0.125,-0.171875 0.171875,-0.21875 0.375,0.375 0.796875,0.390625 1.015625,0.390625 C 2.9375,0.09375 3.3125,-0.546875 3.3125,-1.140625 3.3125,-1.546875 3.140625,-1.796875 2.9375,-2 2.640625,-2.296875 2.3125,-2.359375 1.65625,-2.484375 1.421875,-2.53125 0.765625,-2.640625 0.765625,-3.15625 c 0,-0.28125 0.203125,-0.671875 1.015625,-0.671875 0.96875,0 1.03125,0.75 1.046875,0.96875 0.015625,0.109375 0.015625,0.171875 0.125,0.171875 0.125,0 0.125,-0.0625 0.125,-0.234375 l 0,-0.859375 z m 0,0"
               id="path4586" />
          </symbol>
          <symbol
             style="overflow:visible"
             overflow="visible"
             id="textext-524dc7ed-2">
            <path
               inkscape:connector-curvature="0"
               style="stroke:none"
               d="m 3.546875,-1.5 c 0,0.796875 -0.4375,1.375 -1.09375,1.375 -0.734375,0 -0.78125,-0.390625 -0.78125,-0.875 l 0,-2.96875 -1.359375,0.109375 0,0.265625 C 1,-3.59375 1,-3.5625 1,-2.765625 l 0,1.34375 c 0,0.59375 0,0.96875 0.421875,1.28125 0.25,0.171875 0.625,0.234375 0.984375,0.234375 0.46875,0 0.90625,-0.203125 1.15625,-0.734375 l 0.015625,0 0,0.734375 L 4.90625,0 l 0,-0.28125 c -0.609375,0 -0.6875,-0.0625 -0.6875,-0.5 l 0,-3.1875 -1.359375,0.109375 0,0.265625 c 0.609375,0 0.6875,0.0625 0.6875,0.515625 l 0,1.578125 z m 0,0"
               id="path4589" />
          </symbol>
          <symbol
             style="overflow:visible"
             overflow="visible"
             id="textext-524dc7ed-3">
            <path
               inkscape:connector-curvature="0"
               style="stroke:none"
               d="M 1.625,-3.015625 C 1.921875,-3.53125 2.421875,-3.71875 2.796875,-3.71875 c 0.703125,0 1.234375,0.8125 1.234375,1.78125 0,1.015625 -0.609375,1.8125 -1.328125,1.8125 -0.40625,0 -0.75,-0.234375 -0.96875,-0.546875 C 1.625,-0.859375 1.625,-0.875 1.625,-1.046875 l 0,-1.96875 z m 0,2.578125 c 0.234375,0.234375 0.53125,0.53125 1.125,0.53125 1.078125,0 2.0625,-0.859375 2.0625,-2.03125 0,-1.125 -0.890625,-2.03125 -1.9375,-2.03125 -0.484375,0 -0.9375,0.203125 -1.28125,0.5625 l 0,-0.5625 -1.328125,0.109375 0,0.265625 c 0.640625,0 0.6875,0.0625 0.6875,0.453125 l 0,4.1875 c 0,0.421875 -0.09375,0.421875 -0.6875,0.421875 l 0,0.265625 C 0.6875,1.71875 0.859375,1.71875 1.296875,1.71875 c 0.421875,0 0.546875,0 1.015625,0.015625 l 0,-0.265625 c -0.59375,0 -0.6875,0 -0.6875,-0.421875 l 0,-1.484375 z m 0,0"
               id="path4592" />
          </symbol>
          <symbol
             style="overflow:visible"
             overflow="visible"
             id="textext-524dc7ed-4">
            <path
               inkscape:connector-curvature="0"
               style="stroke:none"
               d="m 1.65625,-6.21875 -1.328125,0.09375 0,0.28125 c 0.609375,0 0.6875,0.0625 0.6875,0.5 l 0,4.65625 c 0,0.40625 -0.09375,0.40625 -0.6875,0.40625 l 0,0.28125 c 0.421875,-0.015625 0.59375,-0.03125 1,-0.03125 C 1.75,-0.03125 1.90625,-0.015625 2.34375,0 l 0,-0.28125 c -0.59375,0 -0.6875,0 -0.6875,-0.40625 l 0,-5.53125 z m 0,0"
               id="path4595" />
          </symbol>
          <symbol
             style="overflow:visible"
             overflow="visible"
             id="textext-524dc7ed-5">
            <path
               inkscape:connector-curvature="0"
               style="stroke:none"
               d="m 1.65625,-3.96875 -1.296875,0.109375 0,0.265625 c 0.578125,0 0.65625,0.0625 0.65625,0.5 l 0,2.40625 c 0,0.40625 -0.09375,0.40625 -0.6875,0.40625 l 0,0.28125 c 0.390625,-0.015625 0.59375,-0.03125 0.984375,-0.03125 0.140625,0 0.515625,0 0.953125,0.03125 l 0,-0.28125 c -0.578125,0 -0.609375,-0.046875 -0.609375,-0.390625 l 0,-3.296875 z m 0.015625,-1.5625 c 0,-0.265625 -0.203125,-0.484375 -0.484375,-0.484375 -0.265625,0 -0.484375,0.234375 -0.484375,0.484375 0,0.265625 0.21875,0.484375 0.484375,0.484375 0.28125,0 0.484375,-0.203125 0.484375,-0.484375 z m 0,0"
               id="path4598" />
          </symbol>
          <symbol
             style="overflow:visible"
             overflow="visible"
             id="textext-524dc7ed-6">
            <path
               inkscape:connector-curvature="0"
               style="stroke:none"
               d="m 3.59375,-2.046875 c 0.1875,0 0.234375,0 0.234375,-0.203125 0,-0.921875 -0.5,-1.765625 -1.65625,-1.765625 -1.0625,0 -1.90625,0.9375 -1.90625,2.046875 0,1.171875 0.9375,2.0625 2.03125,2.0625 1.09375,0 1.53125,-0.953125 1.53125,-1.15625 0,-0.0625 -0.046875,-0.125 -0.125,-0.125 -0.09375,0 -0.109375,0.0625 -0.125,0.109375 -0.296875,0.90625 -1.109375,0.921875 -1.234375,0.921875 -0.4375,0 -0.796875,-0.234375 -1,-0.546875 -0.296875,-0.4375 -0.3125,-0.96875 -0.3125,-1.34375 l 2.5625,0 z m -2.546875,-0.21875 c 0.078125,-1.390625 0.875,-1.53125 1.125,-1.53125 0.5,0 1.03125,0.375 1.046875,1.53125 l -2.171875,0 z m 0,0"
               id="path4601" />
          </symbol>
        </g>
      </defs>
      <g
         id="textext-524dc7ed-7">
        <g
           style="fill:#000000;fill-opacity:1"
           id="g4604">
          <use
             height="1052.3622"
             width="744.09448"
             xlink:href="#textext-524dc7ed-1"
             x="223.43201"
             y="134.765"
             id="use4606" />
          <use
             height="1052.3622"
             width="744.09448"
             xlink:href="#textext-524dc7ed-2"
             x="227.06699"
             y="134.765"
             id="use4608" />
          <use
             height="1052.3622"
             width="744.09448"
             xlink:href="#textext-524dc7ed-3"
             x="232.1868"
             y="134.765"
             id="use4610" />
          <use
             height="1052.3622"
             width="744.09448"
             xlink:href="#textext-524dc7ed-3"
             x="237.30661"
             y="134.765"
             id="use4612" />
          <use
             height="1052.3622"
             width="744.09448"
             xlink:href="#textext-524dc7ed-4"
             x="242.42642"
             y="134.765"
             id="use4614" />
          <use
             height="1052.3622"
             width="744.09448"
             xlink:href="#textext-524dc7ed-5"
             x="244.98633"
             y="134.765"
             id="use4616" />
          <use
             height="1052.3622"
             width="744.09448"
             xlink:href="#textext-524dc7ed-6"
             x="247.54623"
             y="134.765"
             id="use4618" />
          <use
             height="1052.3622"
             width="744.09448"
             xlink:href="#textext-524dc7ed-1"
             x="251.64568"
             y="134.765"
             id="use4620" />
        </g>
      </g>
    </g>
    <g
       id="g5135"
       transform="matrix(1.25,0,0,1.25,91.125662,316.86739)"
       ns0:preamble=""
       ns0:text="\\small\nlosses">
      <defs
         id="defs5137">
        <g
           id="g5139">
          <symbol
             id="textext-e367df66-0"
             overflow="visible"
             style="overflow:visible">
            <path
               inkscape:connector-curvature="0"
               id="path5142"
               d=""
               style="stroke:none" />
          </symbol>
          <symbol
             id="textext-e367df66-1"
             overflow="visible"
             style="overflow:visible">
            <path
               inkscape:connector-curvature="0"
               id="path5145"
               d="m 1.65625,-6.21875 -1.328125,0.09375 0,0.28125 c 0.609375,0 0.6875,0.0625 0.6875,0.5 l 0,4.65625 c 0,0.40625 -0.09375,0.40625 -0.6875,0.40625 l 0,0.28125 c 0.421875,-0.015625 0.59375,-0.03125 1,-0.03125 C 1.75,-0.03125 1.90625,-0.015625 2.34375,0 l 0,-0.28125 c -0.59375,0 -0.6875,0 -0.6875,-0.40625 l 0,-5.53125 z m 0,0"
               style="stroke:none" />
          </symbol>
          <symbol
             id="textext-e367df66-2"
             overflow="visible"
             style="overflow:visible">
            <path
               inkscape:connector-curvature="0"
               id="path5148"
               d="m 4.34375,-1.90625 c 0,-1.171875 -0.9375,-2.109375 -2.03125,-2.109375 -1.140625,0 -2.046875,0.953125 -2.046875,2.109375 0,1.109375 0.921875,2 2.03125,2 1.140625,0 2.046875,-0.90625 2.046875,-2 z m -2.03125,1.75 c -0.453125,0 -0.828125,-0.21875 -1.03125,-0.5625 -0.234375,-0.390625 -0.25,-0.859375 -0.25,-1.265625 0,-0.34375 0,-0.84375 0.21875,-1.21875 0.28125,-0.453125 0.71875,-0.59375 1.046875,-0.59375 0.515625,0 0.875,0.296875 1.0625,0.59375 0.203125,0.375 0.203125,0.828125 0.203125,1.21875 0,0.328125 0,0.84375 -0.21875,1.234375 -0.25,0.421875 -0.65625,0.59375 -1.03125,0.59375 z m 0,0"
               style="stroke:none" />
          </symbol>
          <symbol
             id="textext-e367df66-3"
             overflow="visible"
             style="overflow:visible">
            <path
               inkscape:connector-curvature="0"
               id="path5151"
               d="m 3.078125,-3.78125 c 0,-0.15625 0,-0.234375 -0.09375,-0.234375 -0.046875,0 -0.0625,0 -0.1875,0.109375 -0.015625,0.015625 -0.09375,0.09375 -0.15625,0.140625 -0.265625,-0.203125 -0.546875,-0.25 -0.859375,-0.25 -1.1875,0 -1.46875,0.65625 -1.46875,1.109375 0,0.28125 0.125,0.515625 0.328125,0.71875 0.296875,0.28125 0.640625,0.34375 1.09375,0.421875 0.46875,0.09375 0.609375,0.109375 0.8125,0.265625 0.09375,0.078125 0.3125,0.25 0.3125,0.578125 0,0.796875 -0.90625,0.796875 -1.03125,0.796875 -0.90625,0 -1.140625,-0.765625 -1.25,-1.25 C 0.546875,-1.46875 0.53125,-1.515625 0.4375,-1.515625 c -0.125,0 -0.125,0.078125 -0.125,0.234375 l 0,1.140625 c 0,0.15625 0,0.234375 0.09375,0.234375 0.0625,0 0.0625,0 0.234375,-0.171875 0.03125,-0.0625 0.125,-0.171875 0.171875,-0.21875 0.375,0.375 0.796875,0.390625 1.015625,0.390625 C 2.9375,0.09375 3.3125,-0.546875 3.3125,-1.140625 3.3125,-1.546875 3.140625,-1.796875 2.9375,-2 2.640625,-2.296875 2.3125,-2.359375 1.65625,-2.484375 1.421875,-2.53125 0.765625,-2.640625 0.765625,-3.15625 c 0,-0.28125 0.203125,-0.671875 1.015625,-0.671875 0.96875,0 1.03125,0.75 1.046875,0.96875 0.015625,0.109375 0.015625,0.171875 0.125,0.171875 0.125,0 0.125,-0.0625 0.125,-0.234375 l 0,-0.859375 z m 0,0"
               style="stroke:none" />
          </symbol>
          <symbol
             id="textext-e367df66-4"
             overflow="visible"
             style="overflow:visible">
            <path
               inkscape:connector-curvature="0"
               id="path5154"
               d="m 3.59375,-2.046875 c 0.1875,0 0.234375,0 0.234375,-0.203125 0,-0.921875 -0.5,-1.765625 -1.65625,-1.765625 -1.0625,0 -1.90625,0.9375 -1.90625,2.046875 0,1.171875 0.9375,2.0625 2.03125,2.0625 1.09375,0 1.53125,-0.953125 1.53125,-1.15625 0,-0.0625 -0.046875,-0.125 -0.125,-0.125 -0.09375,0 -0.109375,0.0625 -0.125,0.109375 -0.296875,0.90625 -1.109375,0.921875 -1.234375,0.921875 -0.4375,0 -0.796875,-0.234375 -1,-0.546875 -0.296875,-0.4375 -0.3125,-0.96875 -0.3125,-1.34375 l 2.5625,0 z m -2.546875,-0.21875 c 0.078125,-1.390625 0.875,-1.53125 1.125,-1.53125 0.5,0 1.03125,0.375 1.046875,1.53125 l -2.171875,0 z m 0,0"
               style="stroke:none" />
          </symbol>
        </g>
      </defs>
      <g
         id="textext-e367df66-5">
        <g
           id="g5157"
           style="fill:#000000;fill-opacity:1">
          <use
             id="use5159"
             y="134.765"
             x="223.43201"
             xlink:href="#textext-e367df66-1"
             width="765"
             height="990" />
          <use
             id="use5161"
             y="134.765"
             x="225.99191"
             xlink:href="#textext-e367df66-2"
             width="765"
             height="990" />
          <use
             id="use5163"
             y="134.765"
             x="230.59975"
             xlink:href="#textext-e367df66-3"
             width="765"
             height="990" />
          <use
             id="use5165"
             y="134.765"
             x="234.23473"
             xlink:href="#textext-e367df66-3"
             width="765"
             height="990" />
          <use
             id="use5167"
             y="134.765"
             x="237.86969"
             xlink:href="#textext-e367df66-4"
             width="765"
             height="990" />
          <use
             id="use5169"
             y="134.765"
             x="241.96913"
             xlink:href="#textext-e367df66-3"
             width="765"
             height="990" />
        </g>
      </g>
    </g>
    <g
       ns0:text="$r^e_i$"
       ns0:preamble=""
       transform="matrix(1.25,0,0,1.25,-62.210274,229.43381)"
       id="g4235">
      <defs
         id="defs4237">
        <g
           id="g4239">
          <symbol
             overflow="visible"
             id="textext-8b4639ae-0">
            <path
               style="stroke:none;"
               d="M 0.875 -0.59375 C 0.84375 -0.4375 0.78125 -0.203125 0.78125 -0.15625 C 0.78125 0.015625 0.921875 0.109375 1.078125 0.109375 C 1.203125 0.109375 1.375 0.03125 1.453125 -0.171875 C 1.46875 -0.203125 1.796875 -1.5625 1.84375 -1.75 C 1.921875 -2.078125 2.109375 -2.765625 2.15625 -3.046875 C 2.203125 -3.171875 2.484375 -3.640625 2.71875 -3.859375 C 2.796875 -3.921875 3.09375 -4.1875 3.515625 -4.1875 C 3.78125 -4.1875 3.921875 -4.0625 3.9375 -4.0625 C 3.640625 -4.015625 3.421875 -3.78125 3.421875 -3.515625 C 3.421875 -3.359375 3.53125 -3.171875 3.796875 -3.171875 C 4.0625 -3.171875 4.34375 -3.40625 4.34375 -3.765625 C 4.34375 -4.109375 4.03125 -4.40625 3.515625 -4.40625 C 2.875 -4.40625 2.4375 -3.921875 2.25 -3.640625 C 2.15625 -4.09375 1.796875 -4.40625 1.328125 -4.40625 C 0.875 -4.40625 0.6875 -4.015625 0.59375 -3.84375 C 0.421875 -3.5 0.296875 -2.90625 0.296875 -2.875 C 0.296875 -2.765625 0.390625 -2.765625 0.40625 -2.765625 C 0.515625 -2.765625 0.515625 -2.78125 0.578125 -3 C 0.75 -3.703125 0.953125 -4.1875 1.3125 -4.1875 C 1.46875 -4.1875 1.609375 -4.109375 1.609375 -3.734375 C 1.609375 -3.515625 1.578125 -3.40625 1.453125 -2.890625 Z M 0.875 -0.59375 "
               id="path4242" />
          </symbol>
          <symbol
             overflow="visible"
             id="textext-8b4639ae-1">
            <path
               style="stroke:none;"
               d="M 1.5625 -1.59375 C 1.75 -1.59375 2.3125 -1.609375 2.6875 -1.734375 C 3.203125 -1.921875 3.296875 -2.25 3.296875 -2.453125 C 3.296875 -2.84375 2.90625 -3.078125 2.4375 -3.078125 C 1.59375 -3.078125 0.46875 -2.4375 0.46875 -1.234375 C 0.46875 -0.53125 0.90625 0.0625 1.71875 0.0625 C 2.90625 0.0625 3.453125 -0.625 3.453125 -0.71875 C 3.453125 -0.765625 3.390625 -0.84375 3.328125 -0.84375 C 3.296875 -0.84375 3.28125 -0.828125 3.21875 -0.765625 C 2.671875 -0.125 1.859375 -0.125 1.734375 -0.125 C 1.3125 -0.125 1.03125 -0.40625 1.03125 -0.96875 C 1.03125 -1.0625 1.03125 -1.203125 1.125 -1.59375 Z M 1.171875 -1.78125 C 1.46875 -2.796875 2.234375 -2.875 2.4375 -2.875 C 2.734375 -2.875 3 -2.71875 3 -2.453125 C 3 -1.78125 1.8125 -1.78125 1.515625 -1.78125 Z M 1.171875 -1.78125 "
               id="path4245" />
          </symbol>
          <symbol
             overflow="visible"
             id="textext-8b4639ae-2">
            <path
               style="stroke:none;"
               d="M 2.265625 -4.359375 C 2.265625 -4.46875 2.171875 -4.625 1.984375 -4.625 C 1.796875 -4.625 1.59375 -4.4375 1.59375 -4.234375 C 1.59375 -4.125 1.671875 -3.96875 1.875 -3.96875 C 2.0625 -3.96875 2.265625 -4.171875 2.265625 -4.359375 Z M 0.84375 -0.8125 C 0.8125 -0.71875 0.78125 -0.640625 0.78125 -0.515625 C 0.78125 -0.1875 1.046875 0.0625 1.4375 0.0625 C 2.125 0.0625 2.4375 -0.890625 2.4375 -1 C 2.4375 -1.09375 2.34375 -1.09375 2.328125 -1.09375 C 2.234375 -1.09375 2.21875 -1.046875 2.1875 -0.96875 C 2.03125 -0.40625 1.734375 -0.125 1.453125 -0.125 C 1.3125 -0.125 1.28125 -0.21875 1.28125 -0.375 C 1.28125 -0.53125 1.328125 -0.65625 1.390625 -0.8125 C 1.46875 -1 1.546875 -1.1875 1.609375 -1.375 C 1.671875 -1.546875 1.9375 -2.171875 1.953125 -2.265625 C 1.984375 -2.328125 2 -2.40625 2 -2.484375 C 2 -2.8125 1.71875 -3.078125 1.34375 -3.078125 C 0.640625 -3.078125 0.328125 -2.125 0.328125 -2 C 0.328125 -1.921875 0.421875 -1.921875 0.453125 -1.921875 C 0.546875 -1.921875 0.546875 -1.953125 0.578125 -2.03125 C 0.75 -2.625 1.0625 -2.875 1.3125 -2.875 C 1.421875 -2.875 1.484375 -2.828125 1.484375 -2.640625 C 1.484375 -2.46875 1.453125 -2.375 1.28125 -1.9375 Z M 0.84375 -0.8125 "
               id="path4248" />
          </symbol>
        </g>
      </defs>
      <g
         id="textext-8b4639ae-3">
        <g
           style="fill:rgb(0%,0%,0%);fill-opacity:1;"
           id="g4251">
          <use
             xlink:href="#textext-8b4639ae-0"
             x="223.432"
             y="134.765"
             id="use4253" />
        </g>
        <g
           style="fill:rgb(0%,0%,0%);fill-opacity:1;"
           id="g4255">
          <use
             xlink:href="#textext-8b4639ae-1"
             x="228.204"
             y="131.15"
             id="use4257" />
        </g>
        <g
           style="fill:rgb(0%,0%,0%);fill-opacity:1;"
           id="g4259">
          <use
             xlink:href="#textext-8b4639ae-2"
             x="227.927"
             y="137.358"
             id="use4261" />
        </g>
      </g>
    </g>
    <g
       id="g4749"
       transform="matrix(1.25,0,0,1.25,-60.112614,293.19552)"
       ns0:preamble=""
       ns0:text="$r^e_j$">
      <defs
         id="defs4751">
        <g
           id="g4753">
          <symbol
             id="textext-f7257939-0"
             overflow="visible">
            <path
               id="path4756"
               d="M 0.875 -0.59375 C 0.84375 -0.4375 0.78125 -0.203125 0.78125 -0.15625 C 0.78125 0.015625 0.921875 0.109375 1.078125 0.109375 C 1.203125 0.109375 1.375 0.03125 1.453125 -0.171875 C 1.46875 -0.203125 1.796875 -1.5625 1.84375 -1.75 C 1.921875 -2.078125 2.109375 -2.765625 2.15625 -3.046875 C 2.203125 -3.171875 2.484375 -3.640625 2.71875 -3.859375 C 2.796875 -3.921875 3.09375 -4.1875 3.515625 -4.1875 C 3.78125 -4.1875 3.921875 -4.0625 3.9375 -4.0625 C 3.640625 -4.015625 3.421875 -3.78125 3.421875 -3.515625 C 3.421875 -3.359375 3.53125 -3.171875 3.796875 -3.171875 C 4.0625 -3.171875 4.34375 -3.40625 4.34375 -3.765625 C 4.34375 -4.109375 4.03125 -4.40625 3.515625 -4.40625 C 2.875 -4.40625 2.4375 -3.921875 2.25 -3.640625 C 2.15625 -4.09375 1.796875 -4.40625 1.328125 -4.40625 C 0.875 -4.40625 0.6875 -4.015625 0.59375 -3.84375 C 0.421875 -3.5 0.296875 -2.90625 0.296875 -2.875 C 0.296875 -2.765625 0.390625 -2.765625 0.40625 -2.765625 C 0.515625 -2.765625 0.515625 -2.78125 0.578125 -3 C 0.75 -3.703125 0.953125 -4.1875 1.3125 -4.1875 C 1.46875 -4.1875 1.609375 -4.109375 1.609375 -3.734375 C 1.609375 -3.515625 1.578125 -3.40625 1.453125 -2.890625 Z M 0.875 -0.59375 "
               style="stroke:none;" />
          </symbol>
          <symbol
             id="textext-f7257939-1"
             overflow="visible">
            <path
               id="path4759"
               d="M 1.5625 -1.59375 C 1.75 -1.59375 2.3125 -1.609375 2.6875 -1.734375 C 3.203125 -1.921875 3.296875 -2.25 3.296875 -2.453125 C 3.296875 -2.84375 2.90625 -3.078125 2.4375 -3.078125 C 1.59375 -3.078125 0.46875 -2.4375 0.46875 -1.234375 C 0.46875 -0.53125 0.90625 0.0625 1.71875 0.0625 C 2.90625 0.0625 3.453125 -0.625 3.453125 -0.71875 C 3.453125 -0.765625 3.390625 -0.84375 3.328125 -0.84375 C 3.296875 -0.84375 3.28125 -0.828125 3.21875 -0.765625 C 2.671875 -0.125 1.859375 -0.125 1.734375 -0.125 C 1.3125 -0.125 1.03125 -0.40625 1.03125 -0.96875 C 1.03125 -1.0625 1.03125 -1.203125 1.125 -1.59375 Z M 1.171875 -1.78125 C 1.46875 -2.796875 2.234375 -2.875 2.4375 -2.875 C 2.734375 -2.875 3 -2.71875 3 -2.453125 C 3 -1.78125 1.8125 -1.78125 1.515625 -1.78125 Z M 1.171875 -1.78125 "
               style="stroke:none;" />
          </symbol>
          <symbol
             id="textext-f7257939-2"
             overflow="visible">
            <path
               id="path4762"
               d="M 3.0625 -4.359375 C 3.0625 -4.46875 2.96875 -4.625 2.78125 -4.625 C 2.578125 -4.625 2.390625 -4.421875 2.390625 -4.234375 C 2.390625 -4.125 2.46875 -3.96875 2.671875 -3.96875 C 2.859375 -3.96875 3.0625 -4.15625 3.0625 -4.359375 Z M 1.578125 0.34375 C 1.46875 0.828125 1.09375 1.21875 0.6875 1.21875 C 0.59375 1.21875 0.515625 1.21875 0.4375 1.1875 C 0.609375 1.09375 0.671875 0.9375 0.671875 0.828125 C 0.671875 0.65625 0.53125 0.578125 0.390625 0.578125 C 0.1875 0.578125 0 0.765625 0 0.984375 C 0 1.25 0.265625 1.421875 0.6875 1.421875 C 1.109375 1.421875 1.921875 1.171875 2.140625 0.328125 L 2.765625 -2.171875 C 2.78125 -2.25 2.796875 -2.3125 2.796875 -2.421875 C 2.796875 -2.796875 2.46875 -3.078125 2.0625 -3.078125 C 1.28125 -3.078125 0.84375 -2.109375 0.84375 -2 C 0.84375 -1.921875 0.9375 -1.921875 0.953125 -1.921875 C 1.03125 -1.921875 1.046875 -1.9375 1.09375 -2.046875 C 1.265625 -2.453125 1.625 -2.875 2.03125 -2.875 C 2.203125 -2.875 2.265625 -2.765625 2.265625 -2.53125 C 2.265625 -2.453125 2.265625 -2.359375 2.25 -2.328125 Z M 1.578125 0.34375 "
               style="stroke:none;" />
          </symbol>
        </g>
      </defs>
      <g
         id="textext-f7257939-3">
        <g
           id="g4765"
           style="fill:rgb(0%,0%,0%);fill-opacity:1;">
          <use
             id="use4767"
             y="134.765"
             x="223.432"
             xlink:href="#textext-f7257939-0" />
        </g>
        <g
           id="g4769"
           style="fill:rgb(0%,0%,0%);fill-opacity:1;">
          <use
             id="use4771"
             y="131.15"
             x="228.204"
             xlink:href="#textext-f7257939-1" />
        </g>
        <g
           id="g4773"
           style="fill:rgb(0%,0%,0%);fill-opacity:1;">
          <use
             id="use4775"
             y="137.358"
             x="227.927"
             xlink:href="#textext-f7257939-2" />
        </g>
      </g>
    </g>
    <g
       ns0:text="$\\sigma^e_{i,j}$"
       ns0:preamble=""
       transform="matrix(1.25,0,0,1.25,-15.823554,264.63302)"
       id="g5257">
      <defs
         id="defs5259">
        <g
           id="g5261">
          <symbol
             overflow="visible"
             id="textext-828728fa-0">
            <path
               style="stroke:none;"
               d="M 5.15625 -3.71875 C 5.296875 -3.71875 5.65625 -3.71875 5.65625 -4.0625 C 5.65625 -4.296875 5.4375 -4.296875 5.265625 -4.296875 L 2.984375 -4.296875 C 1.484375 -4.296875 0.375 -2.65625 0.375 -1.46875 C 0.375 -0.59375 0.96875 0.109375 1.875 0.109375 C 3.046875 0.109375 4.375 -1.09375 4.375 -2.625 C 4.375 -2.796875 4.375 -3.28125 4.0625 -3.71875 Z M 1.890625 -0.109375 C 1.390625 -0.109375 1 -0.46875 1 -1.1875 C 1 -1.484375 1.109375 -2.296875 1.46875 -2.890625 C 1.890625 -3.578125 2.484375 -3.71875 2.828125 -3.71875 C 3.65625 -3.71875 3.734375 -3.0625 3.734375 -2.75 C 3.734375 -2.28125 3.53125 -1.46875 3.203125 -0.953125 C 2.8125 -0.375 2.265625 -0.109375 1.890625 -0.109375 Z M 1.890625 -0.109375 "
               id="path5264" />
          </symbol>
          <symbol
             overflow="visible"
             id="textext-828728fa-1">
            <path
               style="stroke:none;"
               d="M 1.5625 -1.59375 C 1.75 -1.59375 2.3125 -1.609375 2.6875 -1.734375 C 3.203125 -1.921875 3.296875 -2.25 3.296875 -2.453125 C 3.296875 -2.84375 2.90625 -3.078125 2.4375 -3.078125 C 1.59375 -3.078125 0.46875 -2.4375 0.46875 -1.234375 C 0.46875 -0.53125 0.90625 0.0625 1.71875 0.0625 C 2.90625 0.0625 3.453125 -0.625 3.453125 -0.71875 C 3.453125 -0.765625 3.390625 -0.84375 3.328125 -0.84375 C 3.296875 -0.84375 3.28125 -0.828125 3.21875 -0.765625 C 2.671875 -0.125 1.859375 -0.125 1.734375 -0.125 C 1.3125 -0.125 1.03125 -0.40625 1.03125 -0.96875 C 1.03125 -1.0625 1.03125 -1.203125 1.125 -1.59375 Z M 1.171875 -1.78125 C 1.46875 -2.796875 2.234375 -2.875 2.4375 -2.875 C 2.734375 -2.875 3 -2.71875 3 -2.453125 C 3 -1.78125 1.8125 -1.78125 1.515625 -1.78125 Z M 1.171875 -1.78125 "
               id="path5267" />
          </symbol>
          <symbol
             overflow="visible"
             id="textext-828728fa-2">
            <path
               style="stroke:none;"
               d="M 2.265625 -4.359375 C 2.265625 -4.46875 2.171875 -4.625 1.984375 -4.625 C 1.796875 -4.625 1.59375 -4.4375 1.59375 -4.234375 C 1.59375 -4.125 1.671875 -3.96875 1.875 -3.96875 C 2.0625 -3.96875 2.265625 -4.171875 2.265625 -4.359375 Z M 0.84375 -0.8125 C 0.8125 -0.71875 0.78125 -0.640625 0.78125 -0.515625 C 0.78125 -0.1875 1.046875 0.0625 1.4375 0.0625 C 2.125 0.0625 2.4375 -0.890625 2.4375 -1 C 2.4375 -1.09375 2.34375 -1.09375 2.328125 -1.09375 C 2.234375 -1.09375 2.21875 -1.046875 2.1875 -0.96875 C 2.03125 -0.40625 1.734375 -0.125 1.453125 -0.125 C 1.3125 -0.125 1.28125 -0.21875 1.28125 -0.375 C 1.28125 -0.53125 1.328125 -0.65625 1.390625 -0.8125 C 1.46875 -1 1.546875 -1.1875 1.609375 -1.375 C 1.671875 -1.546875 1.9375 -2.171875 1.953125 -2.265625 C 1.984375 -2.328125 2 -2.40625 2 -2.484375 C 2 -2.8125 1.71875 -3.078125 1.34375 -3.078125 C 0.640625 -3.078125 0.328125 -2.125 0.328125 -2 C 0.328125 -1.921875 0.421875 -1.921875 0.453125 -1.921875 C 0.546875 -1.921875 0.546875 -1.953125 0.578125 -2.03125 C 0.75 -2.625 1.0625 -2.875 1.3125 -2.875 C 1.421875 -2.875 1.484375 -2.828125 1.484375 -2.640625 C 1.484375 -2.46875 1.453125 -2.375 1.28125 -1.9375 Z M 0.84375 -0.8125 "
               id="path5270" />
          </symbol>
          <symbol
             overflow="visible"
             id="textext-828728fa-3">
            <path
               style="stroke:none;"
               d="M 1.46875 -0.109375 C 1.46875 0.265625 1.40625 0.71875 0.921875 1.15625 C 0.90625 1.1875 0.875 1.21875 0.875 1.25 C 0.875 1.296875 0.9375 1.34375 0.96875 1.34375 C 1.078125 1.34375 1.671875 0.78125 1.671875 -0.046875 C 1.671875 -0.46875 1.5 -0.796875 1.171875 -0.796875 C 0.953125 -0.796875 0.78125 -0.625 0.78125 -0.40625 C 0.78125 -0.1875 0.9375 0 1.1875 0 C 1.359375 0 1.46875 -0.109375 1.46875 -0.109375 Z M 1.46875 -0.109375 "
               id="path5273" />
          </symbol>
          <symbol
             overflow="visible"
             id="textext-828728fa-4">
            <path
               style="stroke:none;"
               d="M 3.0625 -4.359375 C 3.0625 -4.46875 2.96875 -4.625 2.78125 -4.625 C 2.578125 -4.625 2.390625 -4.421875 2.390625 -4.234375 C 2.390625 -4.125 2.46875 -3.96875 2.671875 -3.96875 C 2.859375 -3.96875 3.0625 -4.15625 3.0625 -4.359375 Z M 1.578125 0.34375 C 1.46875 0.828125 1.09375 1.21875 0.6875 1.21875 C 0.59375 1.21875 0.515625 1.21875 0.4375 1.1875 C 0.609375 1.09375 0.671875 0.9375 0.671875 0.828125 C 0.671875 0.65625 0.53125 0.578125 0.390625 0.578125 C 0.1875 0.578125 0 0.765625 0 0.984375 C 0 1.25 0.265625 1.421875 0.6875 1.421875 C 1.109375 1.421875 1.921875 1.171875 2.140625 0.328125 L 2.765625 -2.171875 C 2.78125 -2.25 2.796875 -2.3125 2.796875 -2.421875 C 2.796875 -2.796875 2.46875 -3.078125 2.0625 -3.078125 C 1.28125 -3.078125 0.84375 -2.109375 0.84375 -2 C 0.84375 -1.921875 0.9375 -1.921875 0.953125 -1.921875 C 1.03125 -1.921875 1.046875 -1.9375 1.09375 -2.046875 C 1.265625 -2.453125 1.625 -2.875 2.03125 -2.875 C 2.203125 -2.875 2.265625 -2.765625 2.265625 -2.53125 C 2.265625 -2.453125 2.265625 -2.359375 2.25 -2.328125 Z M 1.578125 0.34375 "
               id="path5276" />
          </symbol>
        </g>
      </defs>
      <g
         id="textext-828728fa-5">
        <g
           style="fill:rgb(0%,0%,0%);fill-opacity:1;"
           id="g5279">
          <use
             xlink:href="#textext-828728fa-0"
             x="223.432"
             y="134.765"
             id="use5281" />
        </g>
        <g
           style="fill:rgb(0%,0%,0%);fill-opacity:1;"
           id="g5283">
          <use
             xlink:href="#textext-828728fa-1"
             x="229.482"
             y="131.15"
             id="use5285" />
        </g>
        <g
           style="fill:rgb(0%,0%,0%);fill-opacity:1;"
           id="g5287">
          <use
             xlink:href="#textext-828728fa-2"
             x="229.125"
             y="137.358"
             id="use5289" />
          <use
             xlink:href="#textext-828728fa-3"
             x="231.94381"
             y="137.358"
             id="use5291" />
          <use
             xlink:href="#textext-828728fa-4"
             x="234.31002"
             y="137.358"
             id="use5293" />
        </g>
      </g>
    </g>
    <g
       id="g5774"
       transform="matrix(1.25,0,0,1.25,49.809256,264.89474)"
       ns0:preamble=""
       ns0:text="$\\sigma^e_{j,i}$">
      <defs
         id="defs5776">
        <g
           id="g5778">
          <symbol
             id="textext-9fbe4d84-0"
             overflow="visible">
            <path
               id="path5781"
               d="M 5.15625 -3.71875 C 5.296875 -3.71875 5.65625 -3.71875 5.65625 -4.0625 C 5.65625 -4.296875 5.4375 -4.296875 5.265625 -4.296875 L 2.984375 -4.296875 C 1.484375 -4.296875 0.375 -2.65625 0.375 -1.46875 C 0.375 -0.59375 0.96875 0.109375 1.875 0.109375 C 3.046875 0.109375 4.375 -1.09375 4.375 -2.625 C 4.375 -2.796875 4.375 -3.28125 4.0625 -3.71875 Z M 1.890625 -0.109375 C 1.390625 -0.109375 1 -0.46875 1 -1.1875 C 1 -1.484375 1.109375 -2.296875 1.46875 -2.890625 C 1.890625 -3.578125 2.484375 -3.71875 2.828125 -3.71875 C 3.65625 -3.71875 3.734375 -3.0625 3.734375 -2.75 C 3.734375 -2.28125 3.53125 -1.46875 3.203125 -0.953125 C 2.8125 -0.375 2.265625 -0.109375 1.890625 -0.109375 Z M 1.890625 -0.109375 "
               style="stroke:none;" />
          </symbol>
          <symbol
             id="textext-9fbe4d84-1"
             overflow="visible">
            <path
               id="path5784"
               d="M 1.5625 -1.59375 C 1.75 -1.59375 2.3125 -1.609375 2.6875 -1.734375 C 3.203125 -1.921875 3.296875 -2.25 3.296875 -2.453125 C 3.296875 -2.84375 2.90625 -3.078125 2.4375 -3.078125 C 1.59375 -3.078125 0.46875 -2.4375 0.46875 -1.234375 C 0.46875 -0.53125 0.90625 0.0625 1.71875 0.0625 C 2.90625 0.0625 3.453125 -0.625 3.453125 -0.71875 C 3.453125 -0.765625 3.390625 -0.84375 3.328125 -0.84375 C 3.296875 -0.84375 3.28125 -0.828125 3.21875 -0.765625 C 2.671875 -0.125 1.859375 -0.125 1.734375 -0.125 C 1.3125 -0.125 1.03125 -0.40625 1.03125 -0.96875 C 1.03125 -1.0625 1.03125 -1.203125 1.125 -1.59375 Z M 1.171875 -1.78125 C 1.46875 -2.796875 2.234375 -2.875 2.4375 -2.875 C 2.734375 -2.875 3 -2.71875 3 -2.453125 C 3 -1.78125 1.8125 -1.78125 1.515625 -1.78125 Z M 1.171875 -1.78125 "
               style="stroke:none;" />
          </symbol>
          <symbol
             id="textext-9fbe4d84-2"
             overflow="visible">
            <path
               id="path5787"
               d="M 3.0625 -4.359375 C 3.0625 -4.46875 2.96875 -4.625 2.78125 -4.625 C 2.578125 -4.625 2.390625 -4.421875 2.390625 -4.234375 C 2.390625 -4.125 2.46875 -3.96875 2.671875 -3.96875 C 2.859375 -3.96875 3.0625 -4.15625 3.0625 -4.359375 Z M 1.578125 0.34375 C 1.46875 0.828125 1.09375 1.21875 0.6875 1.21875 C 0.59375 1.21875 0.515625 1.21875 0.4375 1.1875 C 0.609375 1.09375 0.671875 0.9375 0.671875 0.828125 C 0.671875 0.65625 0.53125 0.578125 0.390625 0.578125 C 0.1875 0.578125 0 0.765625 0 0.984375 C 0 1.25 0.265625 1.421875 0.6875 1.421875 C 1.109375 1.421875 1.921875 1.171875 2.140625 0.328125 L 2.765625 -2.171875 C 2.78125 -2.25 2.796875 -2.3125 2.796875 -2.421875 C 2.796875 -2.796875 2.46875 -3.078125 2.0625 -3.078125 C 1.28125 -3.078125 0.84375 -2.109375 0.84375 -2 C 0.84375 -1.921875 0.9375 -1.921875 0.953125 -1.921875 C 1.03125 -1.921875 1.046875 -1.9375 1.09375 -2.046875 C 1.265625 -2.453125 1.625 -2.875 2.03125 -2.875 C 2.203125 -2.875 2.265625 -2.765625 2.265625 -2.53125 C 2.265625 -2.453125 2.265625 -2.359375 2.25 -2.328125 Z M 1.578125 0.34375 "
               style="stroke:none;" />
          </symbol>
          <symbol
             id="textext-9fbe4d84-3"
             overflow="visible">
            <path
               id="path5790"
               d="M 1.46875 -0.109375 C 1.46875 0.265625 1.40625 0.71875 0.921875 1.15625 C 0.90625 1.1875 0.875 1.21875 0.875 1.25 C 0.875 1.296875 0.9375 1.34375 0.96875 1.34375 C 1.078125 1.34375 1.671875 0.78125 1.671875 -0.046875 C 1.671875 -0.46875 1.5 -0.796875 1.171875 -0.796875 C 0.953125 -0.796875 0.78125 -0.625 0.78125 -0.40625 C 0.78125 -0.1875 0.9375 0 1.1875 0 C 1.359375 0 1.46875 -0.109375 1.46875 -0.109375 Z M 1.46875 -0.109375 "
               style="stroke:none;" />
          </symbol>
          <symbol
             id="textext-9fbe4d84-4"
             overflow="visible">
            <path
               id="path5793"
               d="M 2.265625 -4.359375 C 2.265625 -4.46875 2.171875 -4.625 1.984375 -4.625 C 1.796875 -4.625 1.59375 -4.4375 1.59375 -4.234375 C 1.59375 -4.125 1.671875 -3.96875 1.875 -3.96875 C 2.0625 -3.96875 2.265625 -4.171875 2.265625 -4.359375 Z M 0.84375 -0.8125 C 0.8125 -0.71875 0.78125 -0.640625 0.78125 -0.515625 C 0.78125 -0.1875 1.046875 0.0625 1.4375 0.0625 C 2.125 0.0625 2.4375 -0.890625 2.4375 -1 C 2.4375 -1.09375 2.34375 -1.09375 2.328125 -1.09375 C 2.234375 -1.09375 2.21875 -1.046875 2.1875 -0.96875 C 2.03125 -0.40625 1.734375 -0.125 1.453125 -0.125 C 1.3125 -0.125 1.28125 -0.21875 1.28125 -0.375 C 1.28125 -0.53125 1.328125 -0.65625 1.390625 -0.8125 C 1.46875 -1 1.546875 -1.1875 1.609375 -1.375 C 1.671875 -1.546875 1.9375 -2.171875 1.953125 -2.265625 C 1.984375 -2.328125 2 -2.40625 2 -2.484375 C 2 -2.8125 1.71875 -3.078125 1.34375 -3.078125 C 0.640625 -3.078125 0.328125 -2.125 0.328125 -2 C 0.328125 -1.921875 0.421875 -1.921875 0.453125 -1.921875 C 0.546875 -1.921875 0.546875 -1.953125 0.578125 -2.03125 C 0.75 -2.625 1.0625 -2.875 1.3125 -2.875 C 1.421875 -2.875 1.484375 -2.828125 1.484375 -2.640625 C 1.484375 -2.46875 1.453125 -2.375 1.28125 -1.9375 Z M 0.84375 -0.8125 "
               style="stroke:none;" />
          </symbol>
        </g>
      </defs>
      <g
         id="textext-9fbe4d84-5">
        <g
           id="g5796"
           style="fill:rgb(0%,0%,0%);fill-opacity:1;">
          <use
             id="use5798"
             y="134.765"
             x="223.432"
             xlink:href="#textext-9fbe4d84-0" />
        </g>
        <g
           id="g5800"
           style="fill:rgb(0%,0%,0%);fill-opacity:1;">
          <use
             id="use5802"
             y="131.15"
             x="229.482"
             xlink:href="#textext-9fbe4d84-1" />
        </g>
        <g
           id="g5804"
           style="fill:rgb(0%,0%,0%);fill-opacity:1;">
          <use
             id="use5806"
             y="137.358"
             x="229.125"
             xlink:href="#textext-9fbe4d84-2" />
        </g>
        <g
           id="g5808"
           style="fill:rgb(0%,0%,0%);fill-opacity:1;">
          <use
             id="use5810"
             y="137.358"
             x="232.39362"
             xlink:href="#textext-9fbe4d84-3" />
          <use
             id="use5812"
             y="137.358"
             x="234.75983"
             xlink:href="#textext-9fbe4d84-4" />
        </g>
      </g>
    </g>
    <g
       ns0:text="$d^e_i$"
       ns0:preamble=""
       transform="matrix(1.25,0,0,1.25,103.8991,232.52364)"
       id="g6300">
      <defs
         id="defs6302">
        <g
           id="g6304">
          <symbol
             overflow="visible"
             id="textext-995043f5-0">
            <path
               style="stroke:none;"
               d="M 5.140625 -6.8125 C 5.140625 -6.8125 5.140625 -6.921875 5.015625 -6.921875 C 4.859375 -6.921875 3.921875 -6.828125 3.75 -6.8125 C 3.671875 -6.796875 3.609375 -6.75 3.609375 -6.625 C 3.609375 -6.5 3.703125 -6.5 3.84375 -6.5 C 4.328125 -6.5 4.34375 -6.4375 4.34375 -6.328125 L 4.3125 -6.125 L 3.71875 -3.765625 C 3.53125 -4.140625 3.25 -4.40625 2.796875 -4.40625 C 1.640625 -4.40625 0.40625 -2.9375 0.40625 -1.484375 C 0.40625 -0.546875 0.953125 0.109375 1.71875 0.109375 C 1.921875 0.109375 2.421875 0.0625 3.015625 -0.640625 C 3.09375 -0.21875 3.453125 0.109375 3.921875 0.109375 C 4.28125 0.109375 4.5 -0.125 4.671875 -0.4375 C 4.828125 -0.796875 4.96875 -1.40625 4.96875 -1.421875 C 4.96875 -1.53125 4.875 -1.53125 4.84375 -1.53125 C 4.75 -1.53125 4.734375 -1.484375 4.703125 -1.34375 C 4.53125 -0.703125 4.359375 -0.109375 3.953125 -0.109375 C 3.671875 -0.109375 3.65625 -0.375 3.65625 -0.5625 C 3.65625 -0.8125 3.671875 -0.875 3.703125 -1.046875 Z M 3.078125 -1.1875 C 3.015625 -1 3.015625 -0.984375 2.875 -0.8125 C 2.4375 -0.265625 2.03125 -0.109375 1.75 -0.109375 C 1.25 -0.109375 1.109375 -0.65625 1.109375 -1.046875 C 1.109375 -1.546875 1.421875 -2.765625 1.65625 -3.234375 C 1.96875 -3.8125 2.40625 -4.1875 2.8125 -4.1875 C 3.453125 -4.1875 3.59375 -3.375 3.59375 -3.3125 C 3.59375 -3.25 3.578125 -3.1875 3.5625 -3.140625 Z M 3.078125 -1.1875 "
               id="path6307" />
          </symbol>
          <symbol
             overflow="visible"
             id="textext-995043f5-1">
            <path
               style="stroke:none;"
               d="M 1.5625 -1.59375 C 1.75 -1.59375 2.3125 -1.609375 2.6875 -1.734375 C 3.203125 -1.921875 3.296875 -2.25 3.296875 -2.453125 C 3.296875 -2.84375 2.90625 -3.078125 2.4375 -3.078125 C 1.59375 -3.078125 0.46875 -2.4375 0.46875 -1.234375 C 0.46875 -0.53125 0.90625 0.0625 1.71875 0.0625 C 2.90625 0.0625 3.453125 -0.625 3.453125 -0.71875 C 3.453125 -0.765625 3.390625 -0.84375 3.328125 -0.84375 C 3.296875 -0.84375 3.28125 -0.828125 3.21875 -0.765625 C 2.671875 -0.125 1.859375 -0.125 1.734375 -0.125 C 1.3125 -0.125 1.03125 -0.40625 1.03125 -0.96875 C 1.03125 -1.0625 1.03125 -1.203125 1.125 -1.59375 Z M 1.171875 -1.78125 C 1.46875 -2.796875 2.234375 -2.875 2.4375 -2.875 C 2.734375 -2.875 3 -2.71875 3 -2.453125 C 3 -1.78125 1.8125 -1.78125 1.515625 -1.78125 Z M 1.171875 -1.78125 "
               id="path6310" />
          </symbol>
          <symbol
             overflow="visible"
             id="textext-995043f5-2">
            <path
               style="stroke:none;"
               d="M 2.265625 -4.359375 C 2.265625 -4.46875 2.171875 -4.625 1.984375 -4.625 C 1.796875 -4.625 1.59375 -4.4375 1.59375 -4.234375 C 1.59375 -4.125 1.671875 -3.96875 1.875 -3.96875 C 2.0625 -3.96875 2.265625 -4.171875 2.265625 -4.359375 Z M 0.84375 -0.8125 C 0.8125 -0.71875 0.78125 -0.640625 0.78125 -0.515625 C 0.78125 -0.1875 1.046875 0.0625 1.4375 0.0625 C 2.125 0.0625 2.4375 -0.890625 2.4375 -1 C 2.4375 -1.09375 2.34375 -1.09375 2.328125 -1.09375 C 2.234375 -1.09375 2.21875 -1.046875 2.1875 -0.96875 C 2.03125 -0.40625 1.734375 -0.125 1.453125 -0.125 C 1.3125 -0.125 1.28125 -0.21875 1.28125 -0.375 C 1.28125 -0.53125 1.328125 -0.65625 1.390625 -0.8125 C 1.46875 -1 1.546875 -1.1875 1.609375 -1.375 C 1.671875 -1.546875 1.9375 -2.171875 1.953125 -2.265625 C 1.984375 -2.328125 2 -2.40625 2 -2.484375 C 2 -2.8125 1.71875 -3.078125 1.34375 -3.078125 C 0.640625 -3.078125 0.328125 -2.125 0.328125 -2 C 0.328125 -1.921875 0.421875 -1.921875 0.453125 -1.921875 C 0.546875 -1.921875 0.546875 -1.953125 0.578125 -2.03125 C 0.75 -2.625 1.0625 -2.875 1.3125 -2.875 C 1.421875 -2.875 1.484375 -2.828125 1.484375 -2.640625 C 1.484375 -2.46875 1.453125 -2.375 1.28125 -1.9375 Z M 0.84375 -0.8125 "
               id="path6313" />
          </symbol>
        </g>
      </defs>
      <g
         id="textext-995043f5-3">
        <g
           style="fill:rgb(0%,0%,0%);fill-opacity:1;"
           id="g6316">
          <use
             xlink:href="#textext-995043f5-0"
             x="223.432"
             y="134.765"
             id="use6318" />
        </g>
        <g
           style="fill:rgb(0%,0%,0%);fill-opacity:1;"
           id="g6320">
          <use
             xlink:href="#textext-995043f5-1"
             x="228.618"
             y="131.15"
             id="use6322" />
        </g>
        <g
           style="fill:rgb(0%,0%,0%);fill-opacity:1;"
           id="g6324">
          <use
             xlink:href="#textext-995043f5-2"
             x="228.618"
             y="137.358"
             id="use6326" />
        </g>
      </g>
    </g>
    <g
       id="g6814"
       transform="matrix(1.25,0,0,1.25,103.8991,296.52364)"
       ns0:preamble=""
       ns0:text="$d^e_{j}$">
      <defs
         id="defs6816">
        <g
           id="g6818">
          <symbol
             id="textext-6ff112eb-0"
             overflow="visible">
            <path
               id="path6821"
               d="M 5.140625 -6.8125 C 5.140625 -6.8125 5.140625 -6.921875 5.015625 -6.921875 C 4.859375 -6.921875 3.921875 -6.828125 3.75 -6.8125 C 3.671875 -6.796875 3.609375 -6.75 3.609375 -6.625 C 3.609375 -6.5 3.703125 -6.5 3.84375 -6.5 C 4.328125 -6.5 4.34375 -6.4375 4.34375 -6.328125 L 4.3125 -6.125 L 3.71875 -3.765625 C 3.53125 -4.140625 3.25 -4.40625 2.796875 -4.40625 C 1.640625 -4.40625 0.40625 -2.9375 0.40625 -1.484375 C 0.40625 -0.546875 0.953125 0.109375 1.71875 0.109375 C 1.921875 0.109375 2.421875 0.0625 3.015625 -0.640625 C 3.09375 -0.21875 3.453125 0.109375 3.921875 0.109375 C 4.28125 0.109375 4.5 -0.125 4.671875 -0.4375 C 4.828125 -0.796875 4.96875 -1.40625 4.96875 -1.421875 C 4.96875 -1.53125 4.875 -1.53125 4.84375 -1.53125 C 4.75 -1.53125 4.734375 -1.484375 4.703125 -1.34375 C 4.53125 -0.703125 4.359375 -0.109375 3.953125 -0.109375 C 3.671875 -0.109375 3.65625 -0.375 3.65625 -0.5625 C 3.65625 -0.8125 3.671875 -0.875 3.703125 -1.046875 Z M 3.078125 -1.1875 C 3.015625 -1 3.015625 -0.984375 2.875 -0.8125 C 2.4375 -0.265625 2.03125 -0.109375 1.75 -0.109375 C 1.25 -0.109375 1.109375 -0.65625 1.109375 -1.046875 C 1.109375 -1.546875 1.421875 -2.765625 1.65625 -3.234375 C 1.96875 -3.8125 2.40625 -4.1875 2.8125 -4.1875 C 3.453125 -4.1875 3.59375 -3.375 3.59375 -3.3125 C 3.59375 -3.25 3.578125 -3.1875 3.5625 -3.140625 Z M 3.078125 -1.1875 "
               style="stroke:none;" />
          </symbol>
          <symbol
             id="textext-6ff112eb-1"
             overflow="visible">
            <path
               id="path6824"
               d="M 1.5625 -1.59375 C 1.75 -1.59375 2.3125 -1.609375 2.6875 -1.734375 C 3.203125 -1.921875 3.296875 -2.25 3.296875 -2.453125 C 3.296875 -2.84375 2.90625 -3.078125 2.4375 -3.078125 C 1.59375 -3.078125 0.46875 -2.4375 0.46875 -1.234375 C 0.46875 -0.53125 0.90625 0.0625 1.71875 0.0625 C 2.90625 0.0625 3.453125 -0.625 3.453125 -0.71875 C 3.453125 -0.765625 3.390625 -0.84375 3.328125 -0.84375 C 3.296875 -0.84375 3.28125 -0.828125 3.21875 -0.765625 C 2.671875 -0.125 1.859375 -0.125 1.734375 -0.125 C 1.3125 -0.125 1.03125 -0.40625 1.03125 -0.96875 C 1.03125 -1.0625 1.03125 -1.203125 1.125 -1.59375 Z M 1.171875 -1.78125 C 1.46875 -2.796875 2.234375 -2.875 2.4375 -2.875 C 2.734375 -2.875 3 -2.71875 3 -2.453125 C 3 -1.78125 1.8125 -1.78125 1.515625 -1.78125 Z M 1.171875 -1.78125 "
               style="stroke:none;" />
          </symbol>
          <symbol
             id="textext-6ff112eb-2"
             overflow="visible">
            <path
               id="path6827"
               d="M 3.0625 -4.359375 C 3.0625 -4.46875 2.96875 -4.625 2.78125 -4.625 C 2.578125 -4.625 2.390625 -4.421875 2.390625 -4.234375 C 2.390625 -4.125 2.46875 -3.96875 2.671875 -3.96875 C 2.859375 -3.96875 3.0625 -4.15625 3.0625 -4.359375 Z M 1.578125 0.34375 C 1.46875 0.828125 1.09375 1.21875 0.6875 1.21875 C 0.59375 1.21875 0.515625 1.21875 0.4375 1.1875 C 0.609375 1.09375 0.671875 0.9375 0.671875 0.828125 C 0.671875 0.65625 0.53125 0.578125 0.390625 0.578125 C 0.1875 0.578125 0 0.765625 0 0.984375 C 0 1.25 0.265625 1.421875 0.6875 1.421875 C 1.109375 1.421875 1.921875 1.171875 2.140625 0.328125 L 2.765625 -2.171875 C 2.78125 -2.25 2.796875 -2.3125 2.796875 -2.421875 C 2.796875 -2.796875 2.46875 -3.078125 2.0625 -3.078125 C 1.28125 -3.078125 0.84375 -2.109375 0.84375 -2 C 0.84375 -1.921875 0.9375 -1.921875 0.953125 -1.921875 C 1.03125 -1.921875 1.046875 -1.9375 1.09375 -2.046875 C 1.265625 -2.453125 1.625 -2.875 2.03125 -2.875 C 2.203125 -2.875 2.265625 -2.765625 2.265625 -2.53125 C 2.265625 -2.453125 2.265625 -2.359375 2.25 -2.328125 Z M 1.578125 0.34375 "
               style="stroke:none;" />
          </symbol>
        </g>
      </defs>
      <g
         id="textext-6ff112eb-3">
        <g
           id="g6830"
           style="fill:rgb(0%,0%,0%);fill-opacity:1;">
          <use
             id="use6832"
             y="134.765"
             x="223.432"
             xlink:href="#textext-6ff112eb-0" />
        </g>
        <g
           id="g6834"
           style="fill:rgb(0%,0%,0%);fill-opacity:1;">
          <use
             id="use6836"
             y="131.15"
             x="228.618"
             xlink:href="#textext-6ff112eb-1" />
        </g>
        <g
           id="g6838"
           style="fill:rgb(0%,0%,0%);fill-opacity:1;">
          <use
             id="use6840"
             y="137.358"
             x="228.618"
             xlink:href="#textext-6ff112eb-2" />
        </g>
      </g>
    </g>
  </g>
</svg>
